<svg width="220" height="35" viewBox="0 0 220 35" fill="none" xmlns="http://www.w3.org/2000/svg">
<g clip-path="url(#clip0_1868_6960)">
<rect width="220" height="34.85" fill="white"/>
<rect x="0.5" y="0.5" width="219" height="34" fill="white" stroke="black"/>
<path d="M1.50001 1.32748L219 1.37362V34L1.50001 33.9539V1.32748Z" fill="white"/>
<path d="M1 1.82748L219.5 34.8275L219.806 34L1.30551 1L1 1.82748Z" fill="black"/>
<path d="M220 1.82748L1.5 34.8275L1.19449 34L219.695 1L220 1.82748Z" fill="black"/>
<rect x="62" y="7" width="94" height="20" fill="white"/>
<path d="M89.4338 22.3145V25H79.4113V9.49902H82.6554V22.3145H89.4338ZM98.1452 9.23047C102.732 9.23047 105.622 12.3135 105.622 17.2549C105.622 22.1855 102.732 25.2686 98.1452 25.2686C93.5476 25.2686 90.6687 22.1855 90.6687 17.2549C90.6687 12.3135 93.5476 9.23047 98.1452 9.23047ZM98.1452 11.9375C95.6101 11.9375 93.9773 14 93.9773 17.2549C93.9773 20.499 95.5993 22.5508 98.1452 22.5508C100.68 22.5508 102.302 20.499 102.302 17.2549C102.302 14 100.68 11.9375 98.1452 11.9375ZM122.014 18.4902C122.014 22.7119 119.457 25.2686 115.139 25.2686C110.509 25.2686 107.673 22.2393 107.673 17.2012C107.673 12.2383 110.509 9.23047 115.064 9.23047C118.684 9.23047 121.412 11.3682 121.874 14.5049H118.619C118.147 12.8828 116.825 11.916 115.074 11.916C112.518 11.916 110.982 13.8604 110.982 17.1582C110.982 20.5205 112.615 22.5723 115.193 22.5723C117.309 22.5723 118.781 21.2725 118.845 19.3496L118.856 19.1025H115.483V16.7393H122.014V18.4902ZM131.596 9.23047C136.182 9.23047 139.072 12.3135 139.072 17.2549C139.072 22.1855 136.182 25.2686 131.596 25.2686C126.998 25.2686 124.119 22.1855 124.119 17.2549C124.119 12.3135 126.998 9.23047 131.596 9.23047ZM131.596 11.9375C129.06 11.9375 127.428 14 127.428 17.2549C127.428 20.499 129.05 22.5508 131.596 22.5508C134.131 22.5508 135.753 20.499 135.753 17.2549C135.753 14 134.131 11.9375 131.596 11.9375Z" fill="black"/>
</g>
<defs>
<clipPath id="clip0_1868_6960">
<rect width="220" height="34.85" fill="white"/>
</clipPath>
</defs>
</svg>
