<svg width="220" height="35" viewBox="0 0 220 35" fill="none" xmlns="http://www.w3.org/2000/svg">
<g clip-path="url(#clip0_1868_6903)">
<path fill-rule="evenodd" clip-rule="evenodd" d="M0 25.1656V1.39999H11.0534V5.34431H4.62959V11.2774H10.6508V15.2217H4.62959V21.2213H11.4727V25.1656H0Z" fill="#194C8E"/>
<path fill-rule="evenodd" clip-rule="evenodd" d="M21.9058 16.612L26.7532 25.1639H21.9729L19.8928 20.8217C19.714 20.4459 19.5514 19.949 19.4065 19.3299H19.3394C19.1714 20.0152 19.0095 20.5235 18.8531 20.8548L16.9244 25.1639H12.3618L17.1089 16.612L12.5295 8.19296H17.4777L19.1714 12.4023C19.3394 12.8226 19.4959 13.3306 19.6411 13.9272H19.7082C19.8647 13.2091 19.9934 12.7343 20.0943 12.502L22.1906 8.19296H26.6861L21.9058 16.612Z" fill="#194C8E"/>
<path fill-rule="evenodd" clip-rule="evenodd" d="M32.1473 16.199V17.3926C32.1473 18.8399 32.3539 19.9586 32.7681 20.7483C33.1816 21.5384 33.7577 21.9333 34.4953 21.9333C36.1168 21.9333 36.9276 20.0332 36.9276 16.2321C36.9276 13.0501 36.1504 11.4593 34.5962 11.4593C32.9635 11.4593 32.1473 13.0394 32.1473 16.199ZM32.2984 23.3588H32.2648V32.9708H27.8872V8.19425H32.2648V10.5641H32.2984C33.1593 8.78554 34.518 7.89609 36.3739 7.89609C37.9951 7.89609 39.2478 8.60618 40.1311 10.0257C41.0143 11.4455 41.4563 13.459 41.4563 16.0665C41.4563 19.0387 40.97 21.348 39.9973 22.9941C39.0243 24.6405 37.649 25.4637 35.871 25.4637C34.3053 25.4637 33.1142 24.7619 32.2984 23.3588Z" fill="#194C8E"/>
<path fill-rule="evenodd" clip-rule="evenodd" d="M51.2727 14.9893C51.2727 13.796 51.1186 12.8677 50.8111 12.2052C50.5036 11.5419 49.9475 11.2106 49.1421 11.2106C47.588 11.2106 46.7548 12.4702 46.6434 14.9893H51.2727ZM46.6434 18.0385C46.6874 20.6904 47.9456 22.0163 50.4172 22.0163C51.7028 22.0163 53.0168 21.6298 54.359 20.8561V24.4196C52.8939 25.1156 51.3617 25.4637 49.7632 25.4637C47.3478 25.4637 45.4882 24.7174 44.186 23.226C42.8832 21.7345 42.2319 19.5634 42.2319 16.7127C42.2319 14.1387 42.847 12.0255 44.0767 10.3737C45.3067 8.72196 47.0288 7.89609 49.243 7.89609C51.2557 7.89609 52.7845 8.57272 53.8303 9.92631C54.8758 11.2796 55.3987 13.2157 55.3987 15.7349V18.0385H46.6434Z" fill="#194C8E"/>
<path fill-rule="evenodd" clip-rule="evenodd" d="M65.1475 25.1652V14.1939C65.1475 12.3708 64.4488 11.4593 63.0512 11.4593C62.3799 11.4593 61.8408 11.7163 61.4327 12.2299C61.0239 12.7436 60.8203 13.4149 60.8203 14.2434V25.1652H56.4424V8.19425H60.8203V10.6307H60.8874C61.7033 8.80729 63.1121 7.89609 65.1143 7.89609C68.0214 7.89609 69.475 9.63618 69.475 13.1164V25.1652H65.1475Z" fill="#194C8E"/>
<path fill-rule="evenodd" clip-rule="evenodd" d="M70.6333 24.618V20.8561C71.8515 21.696 73.1208 22.1156 74.4406 22.1156C75.7933 22.1156 76.4699 21.5578 76.4699 20.4418C76.4699 20.0001 76.2911 19.627 75.9335 19.3231C75.5752 19.0193 75.0665 18.6796 74.4071 18.3038C72.8076 17.398 71.7679 16.5303 71.2873 15.7021C70.8064 14.8732 70.5659 13.978 70.5659 13.017C70.5659 11.4924 71.0942 10.2576 72.1509 9.31292C73.2075 8.36825 74.6696 7.89609 76.537 7.89609C77.8229 7.89609 79.0025 8.10624 80.0761 8.52553V12.2052C78.8907 11.5643 77.851 11.2438 76.9562 11.2438C75.6033 11.2438 74.9269 11.8019 74.9269 12.9176C74.9269 13.2713 75.0472 13.5972 75.2876 13.8954C75.5281 14.1939 76.1401 14.6138 77.1242 15.1549C78.6113 15.9949 79.5951 16.807 80.0761 17.5911C80.5566 18.3758 80.7974 19.2816 80.7974 20.309C80.7974 21.8339 80.2803 23.0744 79.246 24.0301C78.2114 24.9858 76.7104 25.4637 74.7424 25.4637C73.0426 25.4637 71.673 25.1816 70.6333 24.618Z" fill="#194C8E"/>
<path fill-rule="evenodd" clip-rule="evenodd" d="M90.3286 14.9893C90.3286 13.796 90.1748 12.8677 89.867 12.2052C89.5595 11.5419 89.0037 11.2106 88.1984 11.2106C86.6439 11.2106 85.8108 12.4702 85.6993 14.9893H90.3286ZM85.6993 18.0385C85.7437 20.6904 87.0019 22.0163 89.4731 22.0163C90.7587 22.0163 92.0727 21.6298 93.4149 20.8561V24.4196C91.9498 25.1156 90.4177 25.4637 88.8191 25.4637C86.4038 25.4637 84.5445 24.7174 83.242 23.226C81.9391 21.7345 81.2878 19.5634 81.2878 16.7127C81.2878 14.1387 81.9029 12.0255 83.1329 10.3737C84.3629 8.72196 86.0851 7.89609 88.2993 7.89609C90.3117 7.89609 91.8407 8.57272 92.8865 9.92631C93.932 11.2796 94.4546 13.2157 94.4546 15.7349V18.0385H85.6993Z" fill="#194C8E"/>
<path fill-rule="evenodd" clip-rule="evenodd" d="M104.361 8.1541C104.249 7.63475 104.126 6.79515 103.992 5.63498C103.959 5.40308 103.93 5.24848 103.908 5.17085H103.807C103.606 6.5743 103.433 7.52432 103.287 8.02158L101.509 15.6947H106.038L104.361 8.1541ZM108.169 25.125L106.826 19.291H100.822L99.4465 25.125H94.5991L101.275 1.35938H106.659L113.049 25.125H108.169Z" fill="#0B8A44"/>
<path fill-rule="evenodd" clip-rule="evenodd" d="M123.09 25.1246V14.1533C123.09 12.3302 122.391 11.4186 120.993 11.4186C120.322 11.4186 119.783 11.6756 119.374 12.1893C118.966 12.703 118.762 13.3742 118.762 14.2028V25.1246H114.385V8.15363H118.762V10.5901H118.83C119.645 8.76668 121.054 7.85547 123.056 7.85547C125.964 7.85547 127.417 9.59556 127.417 13.0757V25.1246H123.09Z" fill="#0B8A44"/>
<path fill-rule="evenodd" clip-rule="evenodd" d="M137.149 26.416C135.852 30.8682 133.795 33.0949 130.977 33.0949C129.993 33.0949 129.11 32.9179 128.327 32.5645V29.0676C128.74 29.3768 129.3 29.5317 130.004 29.5317C131.044 29.5317 131.776 28.8909 132.201 27.6093L133.023 25.0898L127.572 8.15234H132.453L134.684 18.1626C134.885 19.0467 135.03 20.0077 135.12 21.0461H135.153C135.187 20.8805 135.22 20.6817 135.254 20.4494C135.365 19.6764 135.505 18.9249 135.673 18.1957L137.938 8.15234H142.449L137.149 26.416Z" fill="#0B8A44"/>
<path fill-rule="evenodd" clip-rule="evenodd" d="M161.279 25.1233H156.448L154.586 15.2787C154.463 14.6489 154.362 13.6437 154.284 12.2623H154.2C154.133 13.3673 154.021 14.3618 153.865 15.2459L151.936 25.1233H147.055L143.415 8.15234H147.893L149.604 18.61C149.783 19.7039 149.873 20.5876 149.873 21.2616H149.991C150.08 20.3337 150.18 19.4499 150.292 18.61L152.355 8.15234H156.817L158.679 18.6431C158.735 18.9747 158.785 19.4164 158.829 19.9689L158.913 21.2616H159.014C159.014 20.3892 159.109 19.5161 159.299 18.6431L161.111 8.15234H165.103L161.279 25.1233Z" fill="#0B8A44"/>
<path fill-rule="evenodd" clip-rule="evenodd" d="M174.804 25.1249V14.1536C174.804 12.3306 174.106 11.419 172.708 11.419C172.037 11.419 171.497 11.676 171.089 12.1897C170.681 12.7033 170.477 13.3746 170.477 14.2032V25.1249H166.099V0H170.477V10.5905H170.544C171.36 8.76705 172.769 7.85584 174.771 7.85584C177.678 7.85584 179.132 9.59593 179.132 13.0761V25.1249H174.804Z" fill="#0B8A44"/>
<path fill-rule="evenodd" clip-rule="evenodd" d="M189.518 14.9487C189.518 13.7554 189.365 12.8271 189.057 12.1645C188.749 11.5013 188.193 11.17 187.388 11.17C185.834 11.17 185.001 12.4296 184.889 14.9487H189.518ZM184.889 17.9979C184.934 20.6498 186.191 21.9756 188.663 21.9756C189.948 21.9756 191.263 21.5891 192.605 20.8155V24.379C191.139 25.075 189.608 25.423 188.009 25.423C185.593 25.423 183.734 24.6768 182.432 23.1853C181.129 21.6939 180.478 19.5228 180.478 16.672C180.478 14.098 181.093 11.9848 182.323 10.3331C183.552 8.68134 185.274 7.85547 187.489 7.85547C189.502 7.85547 191.031 8.5321 192.076 9.88569C193.121 11.2389 193.644 13.1751 193.644 15.6942V17.9979H184.889Z" fill="#0B8A44"/>
<path fill-rule="evenodd" clip-rule="evenodd" d="M203.762 12.1973C203.259 11.9875 202.756 11.8828 202.253 11.8828C200.128 11.8828 199.066 13.4462 199.066 16.5727V25.1246H194.688V8.15363H199.066V10.9709H199.133C199.737 8.89384 200.916 7.85547 202.672 7.85547C203.019 7.85547 203.382 7.91102 203.762 8.02111V12.1973Z" fill="#0B8A44"/>
<path fill-rule="evenodd" clip-rule="evenodd" d="M213.511 14.9487C213.511 13.7554 213.357 12.8271 213.05 12.1645C212.742 11.5013 212.186 11.17 211.381 11.17C209.826 11.17 208.993 12.4296 208.881 14.9487H213.511ZM208.881 17.9979C208.926 20.6498 210.184 21.9756 212.655 21.9756C213.941 21.9756 215.255 21.5891 216.597 20.8155V24.379C215.132 25.075 213.6 25.423 212.001 25.423C209.586 25.423 207.727 24.6768 206.424 23.1853C205.121 21.6939 204.47 19.5228 204.47 16.672C204.47 14.098 205.085 11.9848 206.315 10.3331C207.545 8.68134 209.267 7.85547 211.481 7.85547C213.494 7.85547 215.023 8.5321 216.069 9.88569C217.114 11.2389 217.637 13.1751 217.637 15.6942V17.9979H208.881Z" fill="#0B8A44"/>
<path fill-rule="evenodd" clip-rule="evenodd" d="M217.737 5.87549V6.32624H217.957C218.141 6.32624 218.233 6.2486 218.233 6.093C218.233 5.94777 218.127 5.87549 217.915 5.87549H217.737ZM218.757 7.33817H218.253L218.102 6.88307C218.049 6.72378 217.976 6.64414 217.883 6.64414H217.737V7.33817H217.318V5.53014H217.953C218.443 5.53014 218.687 5.70148 218.687 6.04414C218.687 6.2911 218.544 6.45039 218.257 6.52233V6.53036C218.376 6.55646 218.47 6.65183 218.538 6.81647L218.757 7.33817ZM217.981 5.21659C217.617 5.21659 217.317 5.33405 217.08 5.56963C216.843 5.80488 216.725 6.09835 216.725 6.44972C216.725 6.80543 216.845 7.09991 217.085 7.33315C217.325 7.56639 217.624 7.68317 217.981 7.68317C218.332 7.68317 218.628 7.56572 218.87 7.33114C219.112 7.09656 219.233 6.80409 219.233 6.45373C219.233 6.09835 219.114 5.8032 218.876 5.56863C218.638 5.33371 218.339 5.21659 217.981 5.21659ZM217.973 7.9047C217.532 7.9047 217.17 7.76951 216.886 7.49879C216.603 7.22841 216.461 6.88139 216.461 6.45775C216.461 6.04347 216.607 5.69646 216.898 5.4167C217.19 5.13695 217.554 4.99707 217.989 4.99707C218.423 4.99707 218.783 5.13327 219.068 5.40566C219.354 5.67839 219.497 6.02641 219.497 6.44972C219.497 6.86433 219.351 7.21034 219.057 7.48808C218.764 7.76583 218.403 7.9047 217.973 7.9047Z" fill="#1A1919"/>
<path fill-rule="evenodd" clip-rule="evenodd" d="M140.878 32.4509H137.801L139.027 26.7227H142.103L141.933 27.5261H139.796L139.463 29.0738H141.453L141.29 29.8689H139.292L138.911 31.6555H141.048L140.878 32.4509Z" fill="#1A1919"/>
<path fill-rule="evenodd" clip-rule="evenodd" d="M143.733 30.9341L142.524 32.4507H141.453L143.336 30.2214L142.42 28.1172H143.392L143.963 29.5789L145.101 28.1172H146.187L144.36 30.2682L145.343 32.4507H144.367L143.733 30.9341Z" fill="#1A1919"/>
<path fill-rule="evenodd" clip-rule="evenodd" d="M148.705 28.791C148.491 28.791 148.278 28.8951 148.067 29.1029C147.855 29.3103 147.683 29.5851 147.549 29.9274C147.416 30.2694 147.349 30.6234 147.349 30.9889C147.349 31.2395 147.411 31.4349 147.533 31.5745C147.656 31.7143 147.83 31.7843 148.055 31.7843C148.279 31.7843 148.49 31.6819 148.685 31.4767C148.881 31.2716 149.035 30.9976 149.149 30.6539C149.263 30.3105 149.319 29.9522 149.319 29.5787C149.319 29.0537 149.115 28.791 148.705 28.791ZM148.178 32.5288C147.699 32.5288 147.344 32.2989 147.111 31.8392H147.072C147.053 32.0925 147.02 32.3341 146.973 32.564L146.592 34.378H145.668L147.008 28.117H147.738L147.654 28.8539H147.69C148.105 28.3104 148.56 28.0391 149.054 28.0391C149.432 28.0391 149.728 28.1733 149.942 28.4423C150.156 28.7117 150.263 29.0851 150.263 29.563C150.263 30.0957 150.171 30.594 149.986 31.0575C149.801 31.5213 149.549 31.8823 149.231 32.141C148.912 32.3993 148.561 32.5288 148.178 32.5288Z" fill="#1A1919"/>
<path fill-rule="evenodd" clip-rule="evenodd" d="M153.277 28.7441C153.023 28.7441 152.785 28.8562 152.562 29.0811C152.338 29.3056 152.177 29.6021 152.08 29.9702H152.195C152.691 29.9702 153.08 29.9006 153.36 29.7611C153.64 29.6212 153.78 29.4234 153.78 29.1671C153.78 29.0343 153.738 28.9302 153.654 28.8556C153.569 28.7813 153.443 28.7441 153.277 28.7441ZM152.674 32.5288C152.153 32.5288 151.747 32.3836 151.455 32.0938C151.163 31.804 151.017 31.3991 151.017 30.8791C151.017 30.3621 151.119 29.8809 151.324 29.4358C151.529 28.9904 151.807 28.6461 152.157 28.4035C152.507 28.1602 152.899 28.0391 153.332 28.0391C153.758 28.0391 154.089 28.1334 154.326 28.3232C154.562 28.5122 154.681 28.7809 154.681 29.128C154.681 29.6035 154.46 29.9749 154.02 30.2426C153.58 30.5107 152.953 30.6442 152.139 30.6442H151.969L151.96 30.7657V30.8791C151.96 31.1692 152.035 31.3964 152.185 31.5611C152.334 31.7257 152.557 31.808 152.853 31.808C153.043 31.808 153.232 31.7829 153.42 31.7334C153.607 31.6839 153.829 31.5989 154.086 31.4788V32.2116C153.832 32.3264 153.599 32.408 153.386 32.4562C153.173 32.5047 152.936 32.5288 152.674 32.5288Z" fill="#1A1919"/>
<path fill-rule="evenodd" clip-rule="evenodd" d="M158.067 28.0391C158.231 28.0391 158.373 28.0545 158.495 28.0859L158.292 28.9439C158.15 28.9074 158.015 28.889 157.888 28.889C157.556 28.889 157.258 29.0366 156.996 29.3318C156.735 29.6269 156.552 30.0134 156.449 30.4916L156.029 32.4505H155.093L156.029 28.117H156.758L156.675 28.9205H156.711C156.93 28.6069 157.15 28.3817 157.369 28.2445C157.588 28.1073 157.821 28.0391 158.067 28.0391Z" fill="#1A1919"/>
<path fill-rule="evenodd" clip-rule="evenodd" d="M159.53 27.0523C159.53 26.875 159.581 26.7311 159.685 26.6217C159.788 26.5119 159.933 26.457 160.121 26.457C160.261 26.457 160.374 26.4915 160.462 26.5608C160.549 26.63 160.592 26.7351 160.592 26.876C160.592 27.0614 160.539 27.2079 160.434 27.315C160.328 27.4218 160.189 27.4753 160.017 27.4753C159.877 27.4753 159.761 27.4415 159.669 27.3736C159.576 27.306 159.53 27.1986 159.53 27.0523ZM159.344 32.4513H158.407L159.344 28.1178H160.275L159.344 32.4513Z" fill="#1A1919"/>
<path fill-rule="evenodd" clip-rule="evenodd" d="M163.087 28.7441C162.833 28.7441 162.594 28.8562 162.371 29.0811C162.147 29.3056 161.987 29.6021 161.889 29.9702H162.004C162.501 29.9702 162.89 29.9006 163.17 29.7611C163.45 29.6212 163.59 29.4234 163.59 29.1671C163.59 29.0343 163.548 28.9302 163.464 28.8556C163.379 28.7813 163.253 28.7441 163.087 28.7441ZM162.484 32.5288C161.963 32.5288 161.557 32.3836 161.265 32.0938C160.973 31.804 160.827 31.3991 160.827 30.8791C160.827 30.3621 160.929 29.8809 161.134 29.4358C161.339 28.9904 161.616 28.6461 161.967 28.4035C162.317 28.1602 162.709 28.0391 163.142 28.0391C163.568 28.0391 163.899 28.1334 164.135 28.3232C164.372 28.5122 164.49 28.7809 164.49 29.128C164.49 29.6035 164.27 29.9749 163.83 30.2426C163.39 30.5107 162.763 30.6442 161.949 30.6442H161.778L161.77 30.7657V30.8791C161.77 31.1692 161.845 31.3964 161.994 31.5611C162.144 31.7257 162.367 31.808 162.663 31.808C162.853 31.808 163.042 31.7829 163.229 31.7334C163.417 31.6839 163.639 31.5989 163.895 31.4788V32.2116C163.642 32.3264 163.409 32.408 163.196 32.4562C162.983 32.5047 162.746 32.5288 162.484 32.5288Z" fill="#1A1919"/>
<path fill-rule="evenodd" clip-rule="evenodd" d="M167.5 32.4505L168.063 29.8173C168.11 29.5824 168.134 29.4117 168.134 29.3043C168.134 28.9623 167.964 28.791 167.623 28.791C167.432 28.791 167.245 28.8656 167.06 29.0145C166.875 29.1631 166.708 29.3783 166.56 29.659C166.412 29.9398 166.301 30.2577 166.227 30.6127L165.839 32.4505H164.903L165.839 28.117H166.568L166.485 28.9205H166.52C166.74 28.6123 166.966 28.3884 167.198 28.2485C167.431 28.1087 167.684 28.0391 167.956 28.0391C168.31 28.0391 168.584 28.1381 168.779 28.3369C168.973 28.535 169.07 28.8171 169.07 29.1828C169.07 29.3632 169.04 29.5995 168.979 29.8919L168.436 32.4505H167.5Z" fill="#1A1919"/>
<path fill-rule="evenodd" clip-rule="evenodd" d="M171.512 32.5288C170.994 32.5288 170.592 32.3903 170.307 32.1136C170.021 31.8368 169.878 31.4409 169.878 30.9263C169.878 30.3858 169.976 29.8939 170.17 29.4515C170.364 29.0085 170.637 28.6625 170.989 28.4128C171.34 28.1635 171.74 28.0391 172.186 28.0391C172.62 28.0391 173.012 28.1184 173.364 28.278L173.086 28.9988C172.764 28.8603 172.472 28.791 172.21 28.791C171.814 28.791 171.483 28.9918 171.219 29.3927C170.954 29.7935 170.822 30.2891 170.822 30.8791C170.822 31.1692 170.896 31.3924 171.044 31.5494C171.192 31.706 171.397 31.7843 171.659 31.7843C171.854 31.7843 172.037 31.7555 172.208 31.6983C172.378 31.6407 172.549 31.5704 172.722 31.4868V32.2508C172.351 32.4361 171.948 32.5288 171.512 32.5288Z" fill="#1A1919"/>
<path fill-rule="evenodd" clip-rule="evenodd" d="M175.922 28.7441C175.668 28.7441 175.429 28.8562 175.206 29.0811C174.983 29.3056 174.822 29.6021 174.724 29.9702H174.839C175.336 29.9702 175.725 29.9006 176.005 29.7611C176.285 29.6212 176.425 29.4234 176.425 29.1671C176.425 29.0343 176.383 28.9302 176.299 28.8556C176.214 28.7813 176.088 28.7441 175.922 28.7441ZM175.319 32.5288C174.798 32.5288 174.392 32.3836 174.1 32.0938C173.807 31.804 173.661 31.3991 173.661 30.8791C173.661 30.3621 173.764 29.8809 173.969 29.4358C174.173 28.9904 174.451 28.6461 174.802 28.4035C175.152 28.1602 175.544 28.0391 175.977 28.0391C176.403 28.0391 176.734 28.1334 176.97 28.3232C177.207 28.5122 177.325 28.7809 177.325 29.128C177.325 29.6035 177.105 29.9749 176.665 30.2426C176.225 30.5107 175.598 30.6442 174.784 30.6442H174.613L174.605 30.7657V30.8791C174.605 31.1692 174.68 31.3964 174.829 31.5611C174.978 31.7257 175.201 31.808 175.497 31.808C175.688 31.808 175.877 31.7829 176.064 31.7334C176.252 31.6839 176.474 31.5989 176.73 31.4788V32.2116C176.477 32.3264 176.243 32.408 176.03 32.4562C175.818 32.5047 175.581 32.5288 175.319 32.5288Z" fill="#1A1919"/>
<path fill-rule="evenodd" clip-rule="evenodd" d="M183.015 32.4509H179.938L181.164 26.7227H184.241L184.07 27.5261H181.933L181.6 29.0738H183.59L183.427 29.8689H181.429L181.049 31.6555H183.186L183.015 32.4509Z" fill="#1A1919"/>
<path fill-rule="evenodd" clip-rule="evenodd" d="M185.87 30.9341L184.661 32.4507H183.59L185.474 30.2214L184.558 28.1172H185.529L186.1 29.5789L187.238 28.1172H188.325L186.497 30.2682L187.48 32.4507H186.505L185.87 30.9341Z" fill="#1A1919"/>
<path fill-rule="evenodd" clip-rule="evenodd" d="M190.029 32.5288C189.511 32.5288 189.109 32.3903 188.824 32.1136C188.538 31.8368 188.396 31.4409 188.396 30.9263C188.396 30.3858 188.493 29.8939 188.687 29.4515C188.881 29.0085 189.154 28.6625 189.506 28.4128C189.858 28.1635 190.256 28.0391 190.703 28.0391C191.137 28.0391 191.529 28.1184 191.881 28.278L191.603 28.9988C191.281 28.8603 190.989 28.791 190.727 28.791C190.331 28.791 190 28.9918 189.736 29.3927C189.471 29.7935 189.339 30.2891 189.339 30.8791C189.339 31.1692 189.413 31.3924 189.562 31.5494C189.709 31.706 189.914 31.7843 190.176 31.7843C190.371 31.7843 190.555 31.7555 190.725 31.6983C190.896 31.6407 191.067 31.5704 191.239 31.4868V32.2508C190.868 32.4361 190.465 32.5288 190.029 32.5288Z" fill="#1A1919"/>
<path fill-rule="evenodd" clip-rule="evenodd" d="M194.439 28.7441C194.185 28.7441 193.946 28.8562 193.723 29.0811C193.499 29.3056 193.339 29.6021 193.241 29.9702H193.356C193.853 29.9702 194.242 29.9006 194.522 29.7611C194.802 29.6212 194.942 29.4234 194.942 29.1671C194.942 29.0343 194.9 28.9302 194.815 28.8556C194.731 28.7813 194.605 28.7441 194.439 28.7441ZM193.836 32.5288C193.315 32.5288 192.909 32.3836 192.617 32.0938C192.324 31.804 192.178 31.3991 192.178 30.8791C192.178 30.3621 192.281 29.8809 192.486 29.4358C192.691 28.9904 192.968 28.6461 193.318 28.4035C193.669 28.1602 194.061 28.0391 194.494 28.0391C194.92 28.0391 195.251 28.1334 195.488 28.3232C195.724 28.5122 195.842 28.7809 195.842 29.128C195.842 29.6035 195.622 29.9749 195.182 30.2426C194.742 30.5107 194.115 30.6442 193.301 30.6442H193.13L193.122 30.7657V30.8791C193.122 31.1692 193.197 31.3964 193.346 31.5611C193.496 31.7257 193.718 31.808 194.014 31.808C194.205 31.808 194.394 31.7829 194.581 31.7334C194.769 31.6839 194.991 31.5989 195.247 31.4788V32.2116C194.994 32.3264 194.76 32.408 194.547 32.4562C194.335 32.5047 194.098 32.5288 193.836 32.5288Z" fill="#1A1919"/>
<path fill-rule="evenodd" clip-rule="evenodd" d="M197.182 32.4518H196.254L197.563 26.3555H198.494L197.182 32.4518Z" fill="#1A1919"/>
<path fill-rule="evenodd" clip-rule="evenodd" d="M199.414 32.4518H198.486L199.795 26.3555H200.727L199.414 32.4518Z" fill="#1A1919"/>
<path fill-rule="evenodd" clip-rule="evenodd" d="M203.166 28.7441C202.912 28.7441 202.673 28.8562 202.45 29.0811C202.227 29.3056 202.066 29.6021 201.968 29.9702H202.083C202.58 29.9702 202.969 29.9006 203.249 29.7611C203.529 29.6212 203.669 29.4234 203.669 29.1671C203.669 29.0343 203.627 28.9302 203.543 28.8556C203.458 28.7813 203.332 28.7441 203.166 28.7441ZM202.563 32.5288C202.042 32.5288 201.636 32.3836 201.344 32.0938C201.051 31.804 200.906 31.3991 200.906 30.8791C200.906 30.3621 201.008 29.8809 201.213 29.4358C201.417 28.9904 201.696 28.6461 202.046 28.4035C202.396 28.1602 202.788 28.0391 203.221 28.0391C203.647 28.0391 203.978 28.1334 204.215 28.3232C204.451 28.5122 204.569 28.7809 204.569 29.128C204.569 29.6035 204.349 29.9749 203.909 30.2426C203.469 30.5107 202.842 30.6442 202.028 30.6442H201.857L201.849 30.7657V30.8791C201.849 31.1692 201.924 31.3964 202.073 31.5611C202.222 31.7257 202.446 31.808 202.742 31.808C202.932 31.808 203.121 31.7829 203.308 31.7334C203.496 31.6839 203.718 31.5989 203.974 31.4788V32.2116C203.721 32.3264 203.488 32.408 203.275 32.4562C203.062 32.5047 202.825 32.5288 202.563 32.5288Z" fill="#1A1919"/>
<path fill-rule="evenodd" clip-rule="evenodd" d="M207.579 32.4505L208.142 29.8173C208.189 29.5824 208.213 29.4117 208.213 29.3043C208.213 28.9623 208.043 28.791 207.702 28.791C207.511 28.791 207.324 28.8656 207.138 29.0145C206.954 29.1631 206.787 29.3783 206.639 29.659C206.491 29.9398 206.38 30.2577 206.306 30.6127L205.917 32.4505H204.981L205.917 28.117H206.647L206.564 28.9205H206.599C206.819 28.6123 207.045 28.3884 207.277 28.2485C207.51 28.1087 207.763 28.0391 208.035 28.0391C208.389 28.0391 208.663 28.1381 208.858 28.3369C209.052 28.535 209.149 28.8171 209.149 29.1828C209.149 29.3632 209.119 29.5995 209.058 29.8919L208.514 32.4505H207.579Z" fill="#1A1919"/>
<path fill-rule="evenodd" clip-rule="evenodd" d="M211.591 32.5288C211.074 32.5288 210.672 32.3903 210.386 32.1136C210.101 31.8368 209.958 31.4409 209.958 30.9263C209.958 30.3858 210.055 29.8939 210.25 29.4515C210.444 29.0085 210.717 28.6625 211.068 28.4128C211.42 28.1635 211.819 28.0391 212.266 28.0391C212.699 28.0391 213.092 28.1184 213.443 28.278L213.166 28.9988C212.843 28.8603 212.551 28.791 212.289 28.791C211.893 28.791 211.562 28.9918 211.298 29.3927C211.034 29.7935 210.902 30.2891 210.902 30.8791C210.902 31.1692 210.976 31.3924 211.124 31.5494C211.272 31.706 211.477 31.7843 211.738 31.7843C211.934 31.7843 212.117 31.7555 212.287 31.6983C212.458 31.6407 212.629 31.5704 212.801 31.4868V32.2508C212.431 32.4361 212.028 32.5288 211.591 32.5288Z" fill="#1A1919"/>
<path fill-rule="evenodd" clip-rule="evenodd" d="M216.001 28.7441C215.747 28.7441 215.508 28.8562 215.285 29.0811C215.061 29.3056 214.901 29.6021 214.803 29.9702H214.918C215.415 29.9702 215.804 29.9006 216.084 29.7611C216.364 29.6212 216.504 29.4234 216.504 29.1671C216.504 29.0343 216.462 28.9302 216.377 28.8556C216.293 28.7813 216.167 28.7441 216.001 28.7441ZM215.398 32.5288C214.877 32.5288 214.471 32.3836 214.179 32.0938C213.886 31.804 213.74 31.3991 213.74 30.8791C213.74 30.3621 213.843 29.8809 214.048 29.4358C214.253 28.9904 214.53 28.6461 214.88 28.4035C215.231 28.1602 215.623 28.0391 216.056 28.0391C216.482 28.0391 216.813 28.1334 217.05 28.3232C217.286 28.5122 217.404 28.7809 217.404 29.128C217.404 29.6035 217.184 29.9749 216.744 30.2426C216.304 30.5107 215.677 30.6442 214.863 30.6442H214.692L214.684 30.7657V30.8791C214.684 31.1692 214.759 31.3964 214.908 31.5611C215.058 31.7257 215.28 31.808 215.576 31.808C215.767 31.808 215.956 31.7829 216.143 31.7334C216.331 31.6839 216.553 31.5989 216.809 31.4788V32.2116C216.556 32.3264 216.322 32.408 216.109 32.4562C215.897 32.5047 215.66 32.5288 215.398 32.5288Z" fill="#1A1919"/>
</g>
<defs>
<clipPath id="clip0_1868_6903">
<rect width="220" height="34.8515" fill="white"/>
</clipPath>
</defs>
</svg>
