<svg width="24" height="24" viewBox="0 0 24 24" fill="none" xmlns="http://www.w3.org/2000/svg">
<path d="M2 19.5454C2 18.9931 2.44772 18.5454 3 18.5454H21C21.5523 18.5454 22 18.9931 22 19.5454V19.5909C22 20.1431 21.5523 20.5909 21 20.5909H3C2.44772 20.5909 2 20.1431 2 19.5909V19.5454Z" fill="black"/>
<path d="M2 6C2 5.44772 2.44772 5 3 5H21C21.5523 5 22 5.44772 22 6V6.04545C22 6.59774 21.5523 7.04545 21 7.04545H3C2.44772 7.04545 2 6.59774 2 6.04545V6Z" fill="black"/>
<path d="M2 12.7709C2 12.2186 2.44772 11.7709 3 11.7709H21C21.5523 11.7709 22 12.2186 22 12.7709V12.8163C22 13.3686 21.5523 13.8163 21 13.8163H3C2.44772 13.8163 2 13.3686 2 12.8163V12.7709Z" fill="black"/>
</svg>
