<svg width="26" height="26" viewBox="0 0 26 26" fill="none" xmlns="http://www.w3.org/2000/svg">
<circle cx="13" cy="13" r="12.5" fill="white" stroke="black"/>
<path fill-rule="evenodd" clip-rule="evenodd" d="M8.59607 9.82727C8.59607 12.4943 10.7225 14.6545 13.3479 14.6545C15.9733 14.6545 18.0998 12.4943 18.0998 9.82727C18.0998 7.1602 15.9733 5 13.3479 5C10.7225 5 8.59607 7.1602 8.59607 9.82727Z" fill="black"/>
<path fill-rule="evenodd" clip-rule="evenodd" d="M5.24414 22.2042C5.59193 20.6776 6.33869 19.2672 7.41834 18.1395C8.95273 16.5368 11.0338 15.6364 13.2038 15.6364C15.3737 15.6364 17.4548 16.5368 18.9892 18.1395C20.069 19.2673 20.8158 20.6779 21.1635 22.2047C18.9839 23.9537 16.2162 25 13.2042 25C10.1918 25 7.42389 23.9535 5.24414 22.2042Z" fill="black"/>
</svg>
